<svg width="2318" height="3001" viewBox="0 0 2318 3001" fill="none" xmlns="http://www.w3.org/2000/svg">
<g style="mix-blend-mode:lighten">
<path d="M567.547 1783.84L747.528 1949.26C749.589 1951.15 750.62 1952.1 751.92 1952.4C753.219 1952.69 754.557 1952.28 757.234 1951.45L925.999 1899.52L943.649 1894.08C944.776 1893.74 945.339 1893.56 945.843 1893.27C946.346 1892.97 946.772 1892.56 947.623 1891.75L956.312 1883.43M567.547 1783.84L621.618 1592.09C621.962 1590.86 622.135 1590.25 622.449 1589.71C622.763 1589.17 623.207 1588.71 624.094 1587.81L844.707 1362.24C845.521 1361.41 845.928 1360.99 846.415 1360.68C846.902 1360.37 847.452 1360.18 848.551 1359.79L1039.46 1292.96C1042.39 1291.94 1043.85 1291.43 1045.27 1291.76C1046.69 1292.09 1047.77 1293.2 1049.93 1295.43L1055.44 1301.09M567.547 1783.84L776.644 1714.12M776.644 1714.12L956.312 1883.43M776.644 1714.12L995.698 1495.02M956.312 1883.43L1177.75 1671.37C1178.82 1670.34 1179.35 1669.83 1179.71 1669.2C1180.07 1668.56 1180.24 1667.84 1180.57 1666.39L1223.48 1480.41C1224.08 1477.81 1224.38 1476.51 1224.04 1475.29C1223.7 1474.06 1222.77 1473.1 1220.91 1471.19L1055.44 1301.09M995.698 1495.02L1164.97 1674.28M995.698 1495.02L1055.44 1301.09" stroke="#650F12" stroke-width="35"/>
<path d="M1697.62 2167.27C1699.75 2192.13 1688.37 2258.09 1625.84 2323.01C1563.32 2387.92 1488.08 2411.91 1458.28 2415.78" stroke="#650F12" stroke-width="35"/>
<path d="M1598.05 2077.64C1600.18 2102.5 1588.8 2168.45 1526.27 2233.37C1463.75 2298.29 1388.51 2322.27 1358.71 2326.15" stroke="#650F12" stroke-width="35"/>
<path d="M1418.83 1898.37C1420.95 1923.23 1409.57 1989.19 1347.04 2054.11C1284.52 2119.02 1209.28 2143.01 1179.48 2146.88" stroke="#650F12" stroke-width="35"/>
<path d="M1229.65 1719.1C1231.77 1743.97 1220.4 1809.92 1157.88 1874.84C1095.36 1939.77 1020.12 1963.76 990.32 1967.64" stroke="#650F12" stroke-width="35"/>
<path d="M1508.44 1988C1510.56 2012.86 1499.18 2078.82 1436.66 2143.74C1374.13 2208.65 1298.9 2232.64 1269.09 2236.52" stroke="#650F12" stroke-width="35"/>
<path d="M1329.21 1808.74C1331.34 1833.6 1319.95 1899.55 1257.43 1964.47C1194.91 2029.39 1119.67 2053.37 1089.87 2057.25" stroke="#650F12" stroke-width="35"/>
<path d="M1458.7 2416.25L925.236 1908.33" stroke="#650F12" stroke-width="35" stroke-linecap="round"/>
<path d="M1697.67 2167.27L1184.12 1669.31" stroke="#650F12" stroke-width="35" stroke-linecap="round"/>
</g>
<g style="mix-blend-mode:lighten">
<path d="M562.57 1445.22L742.551 1610.65C744.613 1612.54 745.644 1613.49 746.943 1613.78C748.243 1614.08 749.581 1613.67 752.257 1612.84L921.022 1560.9L938.672 1555.47C939.799 1555.13 940.362 1554.95 940.866 1554.66C941.37 1554.36 941.795 1553.95 942.647 1553.14L951.336 1544.82M562.57 1445.22L616.641 1253.47C616.986 1252.25 617.158 1251.64 617.472 1251.1C617.787 1250.56 618.23 1250.1 619.117 1249.2L839.73 1023.63C840.544 1022.8 840.952 1022.38 841.439 1022.07C841.926 1021.76 842.475 1021.57 843.574 1021.18L1034.49 954.35C1037.41 953.326 1038.87 952.814 1040.29 953.148C1041.71 953.483 1042.79 954.594 1044.95 956.815L1050.46 962.478M562.57 1445.22L771.667 1375.51M771.667 1375.51L951.336 1544.82M771.667 1375.51L990.721 1156.41M951.336 1544.82L1172.77 1332.76C1173.84 1331.73 1174.37 1331.22 1174.74 1330.58C1175.1 1329.95 1175.26 1329.23 1175.6 1327.78L1218.51 1141.8C1219.11 1139.2 1219.41 1137.9 1219.06 1136.67C1218.72 1135.45 1217.79 1134.49 1215.93 1132.58L1050.46 962.478M990.721 1156.41L1159.99 1335.67M990.721 1156.41L1050.46 962.478" stroke="#8F171C" stroke-width="35"/>
<path d="M1692.65 1828.66C1694.77 1853.52 1683.39 1919.48 1620.87 1984.39C1558.34 2049.31 1483.1 2073.3 1453.3 2077.17" stroke="#8F171C" stroke-width="35"/>
<path d="M1593.08 1739.03C1595.2 1763.89 1583.82 1829.84 1521.3 1894.76C1458.77 1959.68 1383.53 1983.66 1353.73 1987.54" stroke="#8F171C" stroke-width="35"/>
<path d="M1413.85 1559.76C1415.97 1584.62 1404.59 1650.58 1342.07 1715.49C1279.54 1780.41 1204.31 1804.4 1174.5 1808.27" stroke="#8F171C" stroke-width="35"/>
<path d="M1224.67 1380.49C1226.8 1405.35 1215.42 1471.31 1152.9 1536.23C1090.38 1601.16 1015.14 1625.15 985.342 1629.03" stroke="#8F171C" stroke-width="35"/>
<path d="M1503.46 1649.39C1505.59 1674.25 1494.2 1740.21 1431.68 1805.12C1369.16 1870.04 1293.92 1894.03 1264.11 1897.9" stroke="#8F171C" stroke-width="35"/>
<path d="M1324.24 1470.13C1326.36 1494.99 1314.98 1560.94 1252.45 1625.86C1189.93 1690.78 1114.69 1714.76 1084.89 1718.64" stroke="#8F171C" stroke-width="35"/>
<path d="M1453.72 2077.63L920.26 1569.71" stroke="#8F171C" stroke-width="35" stroke-linecap="round"/>
<path d="M1692.69 1828.66L1179.14 1330.7" stroke="#8F171C" stroke-width="35" stroke-linecap="round"/>
</g>
<g style="mix-blend-mode:lighten">
<path d="M587.463 1076.74L767.444 1242.16C769.505 1244.06 770.536 1245 771.836 1245.3C773.135 1245.59 774.473 1245.18 777.15 1244.36L945.915 1192.42L963.565 1186.99C964.692 1186.64 965.255 1186.47 965.759 1186.17C966.262 1185.87 966.688 1185.47 967.539 1184.65L976.228 1176.33M587.463 1076.74L641.534 884.988C641.878 883.767 642.051 883.156 642.365 882.613C642.679 882.069 643.123 881.616 644.01 880.709L864.623 655.143C865.437 654.311 865.844 653.894 866.331 653.584C866.818 653.275 867.368 653.082 868.467 652.697L1059.38 585.864C1062.3 584.84 1063.77 584.328 1065.19 584.662C1066.61 584.997 1067.69 586.107 1069.85 588.329L1075.36 593.992M587.463 1076.74L796.56 1007.02M796.56 1007.02L976.228 1176.33M796.56 1007.02L1015.61 787.92M976.228 1176.33L1197.66 964.272C1198.73 963.246 1199.27 962.734 1199.63 962.098C1199.99 961.463 1200.16 960.741 1200.49 959.297L1243.4 773.316C1244 770.716 1244.3 769.416 1243.96 768.189C1243.61 766.961 1242.68 766.005 1240.82 764.093L1075.36 593.992M1015.61 787.92L1184.88 967.186M1015.61 787.92L1075.36 593.992" stroke="#EA232A" stroke-width="35"/>
<path d="M1717.54 1460.17C1719.66 1485.03 1708.28 1550.99 1645.76 1615.91C1583.23 1680.83 1508 1704.81 1478.19 1708.69" stroke="#EA232A" stroke-width="35"/>
<path d="M1617.97 1370.54C1620.09 1395.4 1608.71 1461.36 1546.19 1526.28C1483.66 1591.19 1408.43 1615.18 1378.62 1619.05" stroke="#EA232A" stroke-width="35"/>
<path d="M1438.74 1191.27C1440.87 1216.13 1429.48 1282.09 1366.96 1347.01C1304.44 1411.93 1229.2 1435.91 1199.39 1439.79" stroke="#EA232A" stroke-width="35"/>
<path d="M1249.56 1012.01C1251.69 1036.87 1240.31 1102.82 1177.79 1167.75C1115.28 1232.67 1040.04 1256.66 1010.24 1260.54" stroke="#EA232A" stroke-width="35"/>
<path d="M1528.36 1280.9C1530.48 1305.77 1519.1 1371.72 1456.57 1436.64C1394.05 1501.56 1318.81 1525.54 1289.01 1529.42" stroke="#EA232A" stroke-width="35"/>
<path d="M1349.13 1101.64C1351.25 1126.5 1339.87 1192.46 1277.35 1257.37C1214.82 1322.29 1139.58 1346.28 1109.78 1350.15" stroke="#EA232A" stroke-width="35"/>
<path d="M1478.62 1709.15L945.152 1201.23" stroke="#EA232A" stroke-width="35" stroke-linecap="round"/>
<path d="M1717.59 1460.17L1204.04 962.213" stroke="#EA232A" stroke-width="35" stroke-linecap="round"/>
<path d="M587.463 1076.74L767.444 1242.16C769.505 1244.06 770.536 1245 771.836 1245.3C773.135 1245.59 774.473 1245.18 777.15 1244.36L945.915 1192.42L963.565 1186.99C964.692 1186.64 965.255 1186.47 965.759 1186.17C966.262 1185.87 966.688 1185.47 967.539 1184.65L976.228 1176.33M587.463 1076.74L641.534 884.988C641.878 883.767 642.051 883.156 642.365 882.613C642.679 882.069 643.123 881.616 644.01 880.709L864.623 655.143C865.437 654.311 865.844 653.894 866.331 653.584C866.818 653.275 867.368 653.082 868.467 652.697L1059.38 585.864C1062.3 584.84 1063.77 584.328 1065.19 584.662C1066.61 584.997 1067.69 586.107 1069.85 588.329L1075.36 593.992M587.463 1076.74L796.56 1007.02M796.56 1007.02L976.228 1176.33M796.56 1007.02L1015.61 787.92M976.228 1176.33L1197.66 964.272C1198.73 963.246 1199.27 962.734 1199.63 962.098C1199.99 961.463 1200.16 960.741 1200.49 959.297L1243.4 773.316C1244 770.716 1244.3 769.416 1243.96 768.189C1243.61 766.961 1242.68 766.005 1240.82 764.093L1075.36 593.992M1015.61 787.92L1184.88 967.186M1015.61 787.92L1075.36 593.992" stroke="#EA232A" stroke-width="35"/>
<path d="M1717.54 1460.17C1719.66 1485.03 1708.28 1550.99 1645.76 1615.91C1583.23 1680.83 1508 1704.81 1478.19 1708.69" stroke="#EA232A" stroke-width="35"/>
<path d="M1617.97 1370.54C1620.09 1395.4 1608.71 1461.36 1546.19 1526.28C1483.66 1591.19 1408.43 1615.18 1378.62 1619.05" stroke="#EA232A" stroke-width="35"/>
<path d="M1438.74 1191.27C1440.87 1216.13 1429.48 1282.09 1366.96 1347.01C1304.44 1411.93 1229.2 1435.91 1199.39 1439.79" stroke="#EA232A" stroke-width="35"/>
<path d="M1249.56 1012.01C1251.69 1036.87 1240.31 1102.82 1177.79 1167.75C1115.28 1232.67 1040.04 1256.66 1010.24 1260.54" stroke="#EA232A" stroke-width="35"/>
<path d="M1528.36 1280.9C1530.48 1305.77 1519.1 1371.72 1456.57 1436.64C1394.05 1501.56 1318.81 1525.54 1289.01 1529.42" stroke="#EA232A" stroke-width="35"/>
<path d="M1349.13 1101.64C1351.25 1126.5 1339.87 1192.46 1277.35 1257.37C1214.82 1322.29 1139.58 1346.28 1109.78 1350.15" stroke="#EA232A" stroke-width="35"/>
<path d="M1478.62 1709.15L945.152 1201.23" stroke="#EA232A" stroke-width="35" stroke-linecap="round"/>
<path d="M1717.59 1460.16L1204.04 962.203" stroke="#EA232A" stroke-width="35" stroke-linecap="round"/>
</g>
</svg>
